<svg xmlns="http://www.w3.org/2000/svg" viewBox="0 0 320 96" width="320" height="96">
  <defs>
    <linearGradient id="lg" x1="0" y1="0" x2="1" y2="1">
      <stop offset="0" stop-color="#8b7bff"/>
      <stop offset="0.55" stop-color="#7c6cf0"/>
      <stop offset="1" stop-color="#00c9a7"/>
    </linearGradient>
  </defs>
  <!-- Mark -->
  <g transform="translate(4,4)">
    <rect x="0" y="0" width="88" height="88" rx="24" fill="#0e0e12"/>
    <rect x="0.75" y="0.75" width="86.5" height="86.5" rx="23.25" fill="none" stroke="url(#lg)" stroke-width="1.5" opacity="0.9"/>
    <path d="M30 30 V62 H64" fill="none" stroke="url(#lg)" stroke-width="4.5" stroke-linecap="round" stroke-linejoin="round" opacity="0.5"/>
    <circle cx="30" cy="30" r="8" fill="#0e0e12" stroke="#8b7bff" stroke-width="4"/>
    <circle cx="30" cy="62" r="8" fill="#0e0e12" stroke="#00c9a7" stroke-width="4"/>
    <circle cx="64" cy="62" r="8" fill="#0e0e12" stroke="#a99aff" stroke-width="4"/>
    <circle cx="30" cy="30" r="3" fill="#8b7bff"/>
    <circle cx="30" cy="62" r="3" fill="#00c9a7"/>
    <circle cx="64" cy="62" r="3" fill="#a99aff"/>
    <path d="M48 14 l2.2 4.8 4.8 2.2 -4.8 2.2 -2.2 4.8 -2.2 -4.8 -4.8 -2.2 4.8 -2.2z" fill="#7c6cf0"/>
  </g>
  <!-- Wordmark -->
  <g transform="translate(108,28)">
    <text x="0" y="26" font-family="ui-sans-serif, system-ui, -apple-system, 'PingFang SC', sans-serif" font-size="30" font-weight="700" letter-spacing="0.5" fill="#ededef">Lily-Skills</text>
    <text x="1" y="48" font-family="ui-sans-serif, system-ui, -apple-system, 'PingFang SC', sans-serif" font-size="12.5" font-weight="500" letter-spacing="3.2" fill="#8b8b96">PERSONAL AI SKILL OS</text>
    <rect x="1" y="58" width="60" height="3" rx="1.5" fill="url(#lg)"/>
  </g>
</svg>
